:SAMPLES-PER-SECOND 30
:FULLY-SPECIFIED
:DEGREES
159
root  35.11519545 36.49247838 -14.76918168 8.927381516 -10.88486195 5.702024937
lowerback  -6.912680149 -1.686020017 -0.5087490082
upperback  -3.557130098 -1.750849962 -4.570499897
thorax  0.07144860178 -0.7283319831 -4.561049938
lowerneck  1.937280059 -19.57530022 -12.22259998
upperneck  2.328089714 -26.91250229 14.13469982
head  3.919729948 -13.29819965 4.481639862
lclavicle  0 -4.497500157e-015 -2.743230041e-014
lhumerus  -48.43130112 26.52289963 62.1692009
lradius  5.228657756e-007 -6.507048965e-006 30.30360031
lwrist  4.824992743e-007 -3.790274832e-007 -28.0433979
lhand  -4.447260948e-031 -37.43909836 -10.81359959
lfingers  90 7.125020027 -90
lthumb  95.0998741 -25.62695715 101.658951
rclavicle  0 -4.497500157e-015 -2.743230041e-014
rhumerus  2.944103241 -39.14779663 3.597895622
rradius  -5.16745672e-007 2.214343908e-008 40.78469849
rwrist  -0.0001064338358 0.02974390797 -167.4420013
rhand  -1.773965891e-031 5.579090118 -7.313809872
rfingers  -90 -7.125020027 -90
rthumb  -84.68064988 -8.797626782 -58.66831746
rfemur  -14.46773815 16.25367546 9.463274002
rtibia  -1.845149279 -3.571709871 21.98873711
rfoot  0.6160473824 -25.13978386 -31.11192703
rtoes  3.971677195 19.61752419 -101.6839199
lfemur  -8.363951683 -17.73021698 -24.09443092
ltibia  3.513606548 -4.251431465 14.5397253
lfoot  1.717650414 -17.88288879 41.15307236
ltoes  -8.634978259 -18.10912451 -116.0386206
160
root  35.12213699 36.48461169 -14.77039818 8.936675072 -10.88223839 5.743849754
lowerback  -6.920070648 -1.692370176 -0.5068480968
upperback  -3.553770065 -1.758319974 -4.579410076
thorax  0.07806479931 -0.7318310142 -4.572229862
lowerneck  1.999109983 -19.55940056 -12.18599987
upperneck  2.303980112 -26.89489937 14.20030022
head  3.905610085 -13.29020023 4.505300045
lclavicle  0 -4.497500157e-015 -2.743230041e-014
lhumerus  -48.43500137 26.61940002 62.03129959
lradius  5.228657756e-007 -6.507048965e-006 30.25359917
lwrist  4.824992743e-007 -3.790274832e-007 -28.09690094
lhand  -4.445924607e-031 -37.41659927 -10.87290001
lfingers  90 7.125020027 -90
lthumb  95.10245953 -25.6857984 101.6404976
rclavicle  0 -4.497500157e-015 -2.743230041e-014
rhumerus  2.851681709 -38.47219849 4.006038666
rradius  -5.16745672e-007 2.214343908e-008 40.21319962
rwrist  -0.0001064338358 0.02974390797 -167.673996
rhand  -1.773706876e-031 5.492770195 -7.206250191
rfingers  -90 -7.125020027 -90
rthumb  -84.64503357 -8.883896529 -58.74381349
rfemur  -14.51836967 16.20485497 9.406608582
rtibia  -1.86900723 -3.618059635 22.03701591
rfoot  0.6169877648 -25.19367981 -31.03526115
rtoes  3.945574259 19.62259141 -101.606182
lfemur  -8.3618927 -17.71531487 -24.14843941
ltibia  3.545423269 -4.246739864 14.49788666
lfoot  1.746122956 -17.89744759 41.19219208
ltoes  -8.64839335 -18.10288893 -116.081787
161
root  35.12630913 36.48222675 -14.77117764 8.94601059 -10.85634422 5.748298645
lowerback  -6.899189949 -1.701949835 -0.5253455639
upperback  -3.559079885 -1.767930031 -4.60529995
thorax  0.05997930095 -0.7356799841 -4.588850021
lowerneck  2.045890093 -19.55290031 -12.11629963
upperneck  2.281320095 -26.8857975 14.22350025
head  3.884840012 -13.28639984 4.512290001
lclavicle  0 -4.497500157e-015 -2.743230041e-014
lhumerus  -48.42879868 26.68499947 61.91579819
lradius  5.228657756e-007 -6.507048965e-006 30.20240021
lwrist  4.824992743e-007 -3.790274832e-007 -28.14949989
lhand  -4.448949928e-031 -37.46749878 -10.8416996
lfingers  90 7.125020027 -90
lthumb  95.11952536 -25.65331723 101.6919692
rclavicle  0 -4.497500157e-015 -2.743230041e-014
rhumerus  2.657192945 -38.00110245 4.359268188
rradius  -5.16745672e-007 2.214343908e-008 39.84799957
rwrist  -0.0001064338358 0.02974390797 -167.8529968
rhand  -1.773071127e-031 5.274819851 -7.382599831
rfingers  -90 -7.125020027 -90
rthumb  -84.78979798 -8.718670628 -58.97044486
rfemur  -14.54069805 16.20193863 9.397879601
rtibia  -1.875216484 -3.612564564 22.05517578
rfoot  0.6175974607 -25.16833496 -31.02978134
rtoes  3.962538615 19.61930219 -101.6567018
lfemur  -8.340704918 -17.72150993 -24.16380501
ltibia  3.570535898 -4.220980644 14.46197701
lfoot  1.786122918 -17.94642258 41.26529694
ltoes  -8.620005514 -18.11606981 -115.990459
162
root  35.12967928 36.48248507 -14.77469647 8.930677414 -10.82511234 5.774053097
lowerback  -6.930770397 -1.66884017 -0.4867971838
upperback  -3.535650015 -1.726009965 -4.608570099
thorax  0.1034929976 -0.7154449821 -4.61259985
lowerneck  2.000890017 -19.59339905 -12.18249989
upperneck  2.331860304 -26.94849968 14.27779961
head  3.931420088 -13.31270027 4.51636982
lclavicle  0 -4.497500157e-015 -2.743230041e-014
lhumerus  -48.36019897 26.80649948 61.8830986
lradius  5.228657756e-007 -6.507048965e-006 30.1446991
lwrist  4.824992743e-007 -3.790274832e-007 -28.39159775
lhand  -4.452818444e-031 -37.53239822 -10.84309959
lfingers  90 7.125020027 -90
lthumb  95.1505054 -25.65221892 101.7615835
rclavicle  0 -4.497500157e-015 -2.743230041e-014
rhumerus  2.325847387 -37.16930008 5.097632885
rradius  -5.16745672e-007 2.214343908e-008 39.17449951
rwrist  -0.0001064338358 0.02974390797 -168.8119965
rhand  -1.772708501e-031 5.146309853 -7.215970039
rfingers  -90 -7.125020027 -90
rthumb  -84.73383526 -8.853072359 -59.08255118
rfemur  -14.54835701 16.23333931 9.383296967
rtibia  -1.893636107 -3.614723682 22.10618019
rfoot  0.5768782496 -25.16314888 -31.10034752
rtoes  3.958235528 19.62013791 -101.6438865
lfemur  -8.289245605 -17.78834915 -24.22061157
ltibia  3.606099844 -4.251014709 14.40764618
lfoot  1.777959347 -17.86511803 41.27130508
ltoes  -8.631130548 -18.11091076 -116.0262423
163
root  35.13025599 36.48392384 -14.77802757 8.913495064 -10.78048706 5.814633369
lowerback  -6.958809376 -1.650919914 -0.4414589405
upperback  -3.525059938 -1.704249978 -4.61247015
thorax  0.1299950033 -0.7051690221 -4.64192009
lowerneck  1.964779973 -19.62350082 -12.19909954
upperneck  2.40031004 -26.9946003 14.28149986
head  3.966310024 -13.33160019 4.505259991
lclavicle  0 -4.497500157e-015 -2.743230041e-014
lhumerus  -48.30820084 26.85230064 61.86389923
lradius  5.228657756e-007 -6.507048965e-006 30.10619926
lwrist  4.824992743e-007 -3.790274832e-007 -28.47579956
lhand  -0 -37.53929901 -10.82390022
lfingers  90 7.125020027 -90
lthumb  95.1494569 -25.63321165 101.7671459
rclavicle  0 -4.497500157e-015 -2.743230041e-014
rhumerus  1.932383776 -36.38560486 5.726967335
rradius  -5.16745672e-007 2.214343908e-008 38.80360031
rwrist  -0.0001064338358 0.02974390797 -169.3139954
rhand  -1.771676022e-031 4.761189938 -7.226799965
rfingers  -90 -7.125020027 -90
rthumb  -84.83123895 -8.819081271 -59.45895034
rfemur  -14.55923557 16.25336647 9.363436699
rtibia  -1.923686862 -3.616162777 22.16991234
rfoot  0.5395202041 -25.16392899 -31.14956665
rtoes  3.924052621 19.62674302 -101.5421023
lfemur  -8.207715988 -17.82222557 -24.29420662
ltibia  3.672925234 -4.237813473 14.2995882
lfoot  1.796554685 -17.85797882 41.31161118
ltoes  -8.671977748 -18.09189704 -116.1577106
164
root  35.13250877 36.48353036 -14.78035994 8.896080017 -10.73862839 5.834262848
lowerback  -6.98584938 -1.646489978 -0.4492779374
upperback  -3.518429995 -1.695250034 -4.625030041
thorax  0.1523610055 -0.6998299956 -4.650939941
lowerneck  1.974560022 -19.63380051 -12.17090034
upperneck  2.407449961 -27.01049995 14.30869961
head  3.969340086 -13.33810043 4.508210182
lclavicle  0 -4.497500157e-015 -2.743230041e-014
lhumerus  -48.28440094 26.89039993 61.81010056
lradius  5.228657756e-007 -6.507048965e-006 30.07180214
lwrist  4.824992743e-007 -3.790274832e-007 -28.54369926
lhand  -4.452728941e-031 -37.53089905 -10.83979988
lfingers  90 7.125020027 -90
lthumb  95.14906688 -25.64901517 101.7597038
rclavicle  0 -4.497500157e-015 -2.743230041e-014
rhumerus  1.611859441 -35.77399445 6.183599472
rradius  -5.16745672e-007 2.214343908e-008 38.57419968
rwrist  -0.0001064338358 0.02974390797 -169.9290009
rhand  -1.77153772e-031 4.707180023 -7.083409786
rfingers  -90 -7.125020027 -90
rthumb  -84.77039111 -8.939190492 -59.50033173
rfemur  -14.52057838 16.28278542 9.354481697
rtibia  -1.935184836 -3.607786894 22.15339851
rfoot  0.5142111182 -25.11942291 -31.26894569
rtoes  3.916225121 19.62824709 -101.5187994
lfemur  -8.2396698 -17.88786507 -24.30555534
ltibia  3.649887562 -4.291494846 14.37079906
lfoot  1.78905654 -17.79583168 41.26373291
ltoes  -8.686863001 -18.08494019 -116.2056527
165
root  35.13493275 36.47925309 -14.78112288 8.900173187 -10.692523 5.859503269
lowerback  -6.97262764 -1.64675343 -0.4353944063
upperback  -3.507050037 -1.692848682 -4.636380196
thorax  0.1559679955 -0.6984716654 -4.670660019
lowerneck  1.986439943 -19.64380074 -12.13389969
upperneck  2.388669729 -27.02260208 14.32129955
head  3.960370064 -13.34399986 4.508649826
lclavicle  0 -4.497500157e-015 -2.743230041e-014
lhumerus  -48.25109863 26.89089966 61.81290054
lradius  5.228657756e-007 -6.507048965e-006 30.05579758
lwrist  4.824992743e-007 -3.790274832e-007 -28.56839943
lhand  -4.449890616e-031 -37.48329926 -10.74600029
lfingers  90 7.125020027 -90
lthumb  95.10549571 -25.55902406 101.699648
rclavicle  0 -4.497500157e-015 -2.743230041e-014
rhumerus  1.311856985 -35.38399887 6.494732857
rradius  -5.16745672e-007 2.214343908e-008 38.33990097
rwrist  -0.0001064338358 0.02974390797 -170.5090027
rhand  -1.771248852e-031 4.592299938 -7.263929844
rfingers  -90 -7.125020027 -90
rthumb  -84.89014486 -8.776284955 -59.62662234
rfemur  -14.5165472 16.22747803 9.329353333
rtibia  -1.948103905 -3.656577587 22.15021324
rfoot  0.5147517323 -25.18885803 -31.23591995
rtoes  3.923732329 19.62680462 -101.5411487
lfemur  -8.296670914 -17.90630341 -24.30867004
ltibia  3.630785942 -4.302224636 14.43040085
lfoot  1.799598694 -17.82136345 41.22882843
ltoes  -8.687314935 -18.08472874 -116.2071085
